<?xml version="1.0" standalone="no"?>
<!DOCTYPE svg PUBLIC "-//W3C//DTD SVG 20010904//EN" "http://www.w3.org/TR/2001/REC-SVG-20010904/DTD/svg10.dtd">
<svg version="1.0" xmlns="http://www.w3.org/2000/svg" width="460.000000pt" height="460.000000pt" viewBox="0 0 225.000000 225.000000" preserveAspectRatio="xMidYMid meet">

  <g transform="translate(0.000000,225.000000) scale(0.100000,-0.100000)" fill="#000000" stroke="none">
    <path d="M1024 2005 c-234 -42 -384 -230 -384 -480 0 -146 45 -259 140 -353
183 -178 514 -176 694 4 94 94 136 203 136 354 0 249 -150 433 -389 476 -91
16 -105 16 -197 -1z" />
    <path d="M754 821 c-213 -107 -364 -311 -408 -551 l-6 -35 781 0 781 0 -7 44
c-10 65 -57 191 -96 258 -19 32 -72 96 -119 143 -70 70 -102 94 -180 133 l-95
48 -58 -20 c-98 -34 -211 -46 -308 -31 -46 6 -106 20 -134 31 -27 10 -55 19
-61 19 -7 0 -47 -18 -90 -39z" />
  </g>
</svg>
