<?xml version="1.0" standalone="no"?>
<!DOCTYPE svg PUBLIC "-//W3C//DTD SVG 20010904//EN" "http://www.w3.org/TR/2001/REC-SVG-20010904/DTD/svg10.dtd">
<svg version="1.0" xmlns="http://www.w3.org/2000/svg" width="310.000000pt" height="37.000000pt" viewBox="0 0 310.000000 37.000000" preserveAspectRatio="xMidYMid meet">

  <g transform="translate(0.000000,37.000000) scale(0.100000,-0.100000)" fill="#DF4723" stroke="#DF4723">
    <path d="M1893 313 c-20 -8 -15 -41 7 -48 29 -9 60 3 60 25 0 25 -34 37 -67
23z" />
    <path d="M840 280 c0 -16 4 -30 10 -30 13 0 70 -85 70 -104 0 -9 -4 -16 -10
-16 -5 0 -10 -14 -10 -30 l0 -31 63 3 c59 3 62 4 65 31 2 15 -1 27 -7 27 -19
0 -12 39 15 80 15 22 31 40 35 40 5 0 9 14 9 30 0 28 -2 30 -40 30 -40 0 -41
-1 -38 -34 1 -19 -4 -42 -12 -51 -13 -16 -15 -16 -26 0 -7 10 -10 31 -7 51 l6
34 -62 0 -61 0 0 -30z" />
    <path d="M1610 280 c0 -20 5 -30 15 -30 12 0 15 -14 15 -65 0 -51 -3 -65 -15
-65 -9 0 -15 -9 -15 -25 0 -24 2 -25 70 -25 68 0 70 1 70 25 0 14 -4 25 -10
25 -5 0 -10 11 -10 25 0 18 5 25 20 25 13 0 20 7 20 20 0 13 -7 20 -20 20 -13
0 -20 7 -20 20 0 16 7 20 30 20 17 0 30 -4 30 -10 0 -5 13 -10 29 -10 28 0 30
2 29 40 l0 40 -119 0 -119 0 0 -30z" />
    <path d="M2053 283 c-18 -9 -33 -23 -33 -30 0 -7 -4 -13 -10 -13 -5 0 -10 -13
-10 -30 0 -16 5 -30 10 -30 6 0 10 -18 10 -40 0 -51 32 -76 85 -66 40 8 49 40
15 49 -14 3 -20 14 -20 31 0 19 5 26 20 26 16 0 20 7 20 30 0 23 -4 30 -20 30
-16 0 -20 7 -20 30 0 34 -3 35 -47 13z" />
    <path d="M1123 226 c-59 -27 -69 -98 -18 -132 59 -38 163 -22 186 30 15 32 4
72 -24 91 -35 22 -106 28 -144 11z m92 -46 c10 -32 -4 -60 -30 -60 -26 0 -40
28 -30 60 4 13 15 20 30 20 15 0 26 -7 30 -20z" />
    <path d="M1330 215 c0 -14 5 -25 10 -25 6 0 10 -13 10 -29 0 -73 42 -105 106
-81 20 8 30 8 32 1 2 -6 26 -11 53 -11 46 0 49 2 49 25 0 14 -4 25 -10 25 -6
0 -10 27 -10 61 l0 60 -52 -3 c-46 -3 -53 -6 -56 -25 -2 -16 2 -23 12 -23 12
0 16 -10 16 -36 0 -33 -2 -35 -27 -32 -27 3 -28 6 -31 61 l-3 57 -49 0 c-47 0
-50 -2 -50 -25z" />
    <path d="M1874 155 l0 -85 53 0 53 0 -6 73 c-8 98 -7 97 -57 97 l-43 0 0 -85z" />
  </g>
</svg>
